<?xml version="1.0" encoding="UTF-8" standalone="no"?>
<!-- Created with Inkscape (http://www.inkscape.org/) -->

<svg
   xmlns:dc="http://purl.org/dc/elements/1.1/"
   xmlns:cc="http://creativecommons.org/ns#"
   xmlns:rdf="http://www.w3.org/1999/02/22-rdf-syntax-ns#"
   xmlns:svg="http://www.w3.org/2000/svg"
   xmlns="http://www.w3.org/2000/svg"
   xmlns:sodipodi="http://sodipodi.sourceforge.net/DTD/sodipodi-0.dtd"
   xmlns:inkscape="http://www.inkscape.org/namespaces/inkscape"
   width="64"
   height="64"
   id="svg2"
   version="1.1"
   inkscape:version="0.48.4 r9939"
   sodipodi:docname="quick-eat-local.svg">
  <defs
     id="defs4" />
  <sodipodi:namedview
     id="base"
     pagecolor="#ffffff"
     bordercolor="#666666"
     borderopacity="1.0"
     inkscape:pageopacity="0.0"
     inkscape:pageshadow="2"
     inkscape:zoom="5.6568542"
     inkscape:cx="-13.82136"
     inkscape:cy="24.338744"
     inkscape:document-units="px"
     inkscape:current-layer="layer1"
     showgrid="true"
     inkscape:window-width="1600"
     inkscape:window-height="876"
     inkscape:window-x="0"
     inkscape:window-y="24"
     inkscape:window-maximized="1">
    <inkscape:grid
       type="xygrid"
       id="grid2985"
       empspacing="4"
       visible="true"
       enabled="true"
       snapvisiblegridlinesonly="true" />
  </sodipodi:namedview>
  <metadata
     id="metadata7">
    <rdf:RDF>
      <cc:Work
         rdf:about="">
        <dc:format>image/svg+xml</dc:format>
        <dc:type
           rdf:resource="http://purl.org/dc/dcmitype/StillImage" />
        <dc:title></dc:title>
      </cc:Work>
    </rdf:RDF>
  </metadata>
  <g
     inkscape:label="Layer 1"
     inkscape:groupmode="layer"
     id="layer1"
     transform="translate(0,-988.36218)">
    <path
       style="fill:#ffc000;fill-opacity:1;stroke:none"
       d="m 59.5,1044.6091 c 0,4 -4,3.75 -28,3.75 -24,0 -28,0.25 -28,-3.75 0,-4.25 4,-4.25 28,-4.25 24,0 28,0 28,4.25 z"
       id="path3928"
       inkscape:connector-curvature="0"
       sodipodi:nodetypes="sssss" />
    <path
       style="font-size:medium;font-style:normal;font-variant:normal;font-weight:normal;font-stretch:normal;text-indent:0;text-align:start;text-decoration:none;line-height:normal;letter-spacing:normal;word-spacing:normal;text-transform:none;direction:ltr;block-progression:tb;writing-mode:lr-tb;text-anchor:start;baseline-shift:baseline;color:#000000;fill:#c08000;fill-opacity:1;fill-rule:nonzero;stroke:none;stroke-width:2;marker:none;visibility:visible;display:inline;overflow:visible;enable-background:accumulate;font-family:Sans;-inkscape-font-specification:Sans"
       d="m 32,1039.3438 c -12,0 -18.974063,0.011 -23.125,0.5624 -2.0754684,0.2757 -3.495892,0.6687 -4.5,1.4688 -1.004108,0.8001 -1.375,1.9994 -1.375,3.2188 0,1.1666 0.3922593,2.3649 1.40625,3.0937 1.0139907,0.7288 2.4322097,1.0551 4.5,1.2813 4.135581,0.4523 11.097222,0.375 23.09375,0.375 11.996528,0 18.958169,0.077 23.09375,-0.375 2.06779,-0.2262 3.486009,-0.5525 4.5,-1.2813 1.013991,-0.7288 1.40625,-1.9271 1.40625,-3.0937 0,-1.2194 -0.370892,-2.4187 -1.375,-3.2188 -1.004108,-0.8001 -2.424532,-1.1931 -4.5,-1.4688 C 50.974063,1039.355 44,1039.3437 32,1039.3438 z m 0,2 c 12,0 19.025937,0.02 22.875,0.5312 1.924532,0.2556 3.004108,0.6673 3.5,1.0625 0.495892,0.3952 0.625,0.7506 0.625,1.6563 0,0.8333 -0.107741,1.1194 -0.59375,1.4687 -0.486009,0.3493 -1.56779,0.7262 -3.5,0.9375 -3.864419,0.4227 -10.902778,0.3438 -22.90625,0.3438 -12.003472,0 -19.041831,0.079 -22.90625,-0.3438 -1.9322097,-0.2113 -3.0139907,-0.5882 -3.5,-0.9375 C 5.1077407,1045.7132 5,1045.4271 5,1044.5938 c 0,-0.9057 0.129108,-1.2611 0.625,-1.6563 0.495892,-0.3952 1.5754684,-0.8069 3.5,-1.0625 3.849063,-0.5112 10.875,-0.5312 22.875,-0.5312 z"
       id="path2987-3"
       inkscape:connector-curvature="0" />
    <path
       style="fill:#c02000;fill-opacity:1;stroke:none"
       d="m 59.5,1039.1091 c 0,4 -4,3.75 -28,3.75 -24,0 -28,0.25 -28,-3.75 0,-4.25 4,-4.25 28,-4.25 24,0 28,0 28,4.25 z"
       id="path3924"
       inkscape:connector-curvature="0"
       sodipodi:nodetypes="sssss" />
    <path
       style="font-size:medium;font-style:normal;font-variant:normal;font-weight:normal;font-stretch:normal;text-indent:0;text-align:start;text-decoration:none;line-height:normal;letter-spacing:normal;word-spacing:normal;text-transform:none;direction:ltr;block-progression:tb;writing-mode:lr-tb;text-anchor:start;baseline-shift:baseline;color:#000000;fill:#801000;fill-opacity:1;fill-rule:nonzero;stroke:none;stroke-width:2;marker:none;visibility:visible;display:inline;overflow:visible;enable-background:accumulate;font-family:Sans;-inkscape-font-specification:Sans"
       d="m 32,1033.8438 c -12,0 -18.974063,0.011 -23.125,0.5624 -2.0754684,0.2757 -3.495892,0.6687 -4.5,1.4688 -1.004108,0.8001 -1.375,1.9994 -1.375,3.2188 0,1.1666 0.3922593,2.3649 1.40625,3.0937 1.0139907,0.7288 2.4322097,1.0551 4.5,1.2813 4.135581,0.4523 11.097222,0.375 23.09375,0.375 11.996528,0 18.958169,0.077 23.09375,-0.375 2.06779,-0.2262 3.486009,-0.5525 4.5,-1.2813 1.013991,-0.7288 1.40625,-1.9271 1.40625,-3.0937 0,-1.2194 -0.370892,-2.4187 -1.375,-3.2188 -1.004108,-0.8001 -2.424532,-1.1931 -4.5,-1.4688 C 50.974063,1033.855 44,1033.8437 32,1033.8438 z m 0,2 c 12,0 19.025937,0.02 22.875,0.5312 1.924532,0.2556 3.004108,0.6673 3.5,1.0625 0.495892,0.3952 0.625,0.7506 0.625,1.6563 0,0.8333 -0.107741,1.1194 -0.59375,1.4687 -0.486009,0.3493 -1.56779,0.7262 -3.5,0.9375 -3.864419,0.4227 -10.902778,0.3438 -22.90625,0.3438 -12.003472,0 -19.041831,0.079 -22.90625,-0.3438 -1.9322097,-0.2113 -3.0139907,-0.5882 -3.5,-0.9375 C 5.1077407,1040.2132 5,1039.9271 5,1039.0938 c 0,-0.9057 0.129108,-1.2611 0.625,-1.6563 0.495892,-0.3952 1.5754684,-0.8069 3.5,-1.0625 3.849063,-0.5112 10.875,-0.5312 22.875,-0.5312 z"
       id="path2987-3-6"
       inkscape:connector-curvature="0" />
    <path
       style="fill:#80c000;fill-opacity:1;stroke:none"
       d="m 59.5,1033.6091 c 0,4 -4,3.75 -28,3.75 -24,0 -28,0.25 -28,-3.75 0,-4.25 4,-4.25 28,-4.25 24,0 28,0 28,4.25 z"
       id="path3920"
       inkscape:connector-curvature="0"
       sodipodi:nodetypes="sssss" />
    <path
       style="font-size:medium;font-style:normal;font-variant:normal;font-weight:normal;font-stretch:normal;text-indent:0;text-align:start;text-decoration:none;line-height:normal;letter-spacing:normal;word-spacing:normal;text-transform:none;direction:ltr;block-progression:tb;writing-mode:lr-tb;text-anchor:start;baseline-shift:baseline;color:#000000;fill:#408000;fill-opacity:1;fill-rule:nonzero;stroke:none;stroke-width:2;marker:none;visibility:visible;display:inline;overflow:visible;enable-background:accumulate;font-family:Sans;-inkscape-font-specification:Sans"
       d="m 32,1028.3438 c -12,0 -18.974063,0.011 -23.125,0.5624 -2.0754684,0.2757 -3.495892,0.6687 -4.5,1.4688 -1.004108,0.8001 -1.375,1.9994 -1.375,3.2188 0,1.1666 0.3922593,2.3649 1.40625,3.0937 1.0139907,0.7288 2.4322097,1.0551 4.5,1.2813 4.135581,0.4523 11.097222,0.375 23.09375,0.375 11.996528,0 18.958169,0.077 23.09375,-0.375 2.06779,-0.2262 3.486009,-0.5525 4.5,-1.2813 1.013991,-0.7288 1.40625,-1.9271 1.40625,-3.0937 0,-1.2194 -0.370892,-2.4187 -1.375,-3.2188 -1.004108,-0.8001 -2.424532,-1.1931 -4.5,-1.4688 C 50.974063,1028.355 44,1028.3437 32,1028.3438 z m 0,2 c 12,0 19.025937,0.02 22.875,0.5312 1.924532,0.2556 3.004108,0.6673 3.5,1.0625 0.495892,0.3952 0.625,0.7506 0.625,1.6563 0,0.8333 -0.107741,1.1194 -0.59375,1.4687 -0.486009,0.3493 -1.56779,0.7262 -3.5,0.9375 -3.864419,0.4227 -10.902778,0.3438 -22.90625,0.3438 -12.003472,0 -19.041831,0.079 -22.90625,-0.3438 -1.9322097,-0.2113 -3.0139907,-0.5882 -3.5,-0.9375 C 5.1077407,1034.7132 5,1034.4271 5,1033.5938 c 0,-0.9057 0.129108,-1.2611 0.625,-1.6563 0.495892,-0.3952 1.5754684,-0.8069 3.5,-1.0625 3.849063,-0.5112 10.875,-0.5312 22.875,-0.5312 z"
       id="path2987-3-6-5"
       inkscape:connector-curvature="0" />
    <path
       style="fill:#ffc000;fill-opacity:1;stroke:none"
       d="m 59,1028.793 c 0,4 -4.125,3.75 -28,4 -24.124973,0.2526 -28,0 -28,-4 0,-8 12,-16 28,-16 16,0 28,8 28,16 z"
       id="path3916"
       inkscape:connector-curvature="0"
       sodipodi:nodetypes="sssss" />
    <path
       sodipodi:type="arc"
       style="fill:#c08000;fill-opacity:1;stroke:none"
       id="path3830-36"
       sodipodi:cx="16"
       sodipodi:cy="32"
       sodipodi:rx="4"
       sodipodi:ry="4"
       d="m 20,32 a 4,4 0 1 1 -8,0 4,4 0 1 1 8,0 z"
       transform="matrix(0.25,0,0,0.25,4.25,1018.1122)" />
    <path
       sodipodi:type="arc"
       style="fill:#c08000;fill-opacity:1;stroke:none"
       id="path3830-3-7"
       sodipodi:cx="16"
       sodipodi:cy="32"
       sodipodi:rx="4"
       sodipodi:ry="4"
       d="m 20,32 a 4,4 0 1 1 -8,0 4,4 0 1 1 8,0 z"
       transform="matrix(0.25,0,0,0.25,9.75,1016.3622)" />
    <path
       sodipodi:type="arc"
       style="fill:#c08000;fill-opacity:1;stroke:none"
       id="path3830-3-5-5"
       sodipodi:cx="16"
       sodipodi:cy="32"
       sodipodi:rx="4"
       sodipodi:ry="4"
       d="m 20,32 a 4,4 0 1 1 -8,0 4,4 0 1 1 8,0 z"
       transform="matrix(0.25,0,0,0.25,25.125,1019.1122)" />
    <path
       sodipodi:type="arc"
       style="fill:#c08000;fill-opacity:1;stroke:none"
       id="path3830-3-5-6-3"
       sodipodi:cx="16"
       sodipodi:cy="32"
       sodipodi:rx="4"
       sodipodi:ry="4"
       d="m 20,32 a 4,4 0 1 1 -8,0 4,4 0 1 1 8,0 z"
       transform="matrix(0.25,0,0,0.25,24.5,1012.6122)" />
    <path
       sodipodi:type="arc"
       style="fill:#c08000;fill-opacity:1;stroke:none"
       id="path3830-3-5-6-2-5"
       sodipodi:cx="16"
       sodipodi:cy="32"
       sodipodi:rx="4"
       sodipodi:ry="4"
       d="m 20,32 a 4,4 0 1 1 -8,0 4,4 0 1 1 8,0 z"
       transform="matrix(0.25,0,0,0.25,31.25,1014.4872)" />
    <path
       sodipodi:type="arc"
       style="fill:#c08000;fill-opacity:1;stroke:none"
       id="path3830-3-5-6-9-6"
       sodipodi:cx="16"
       sodipodi:cy="32"
       sodipodi:rx="4"
       sodipodi:ry="4"
       d="m 20,32 a 4,4 0 1 1 -8,0 4,4 0 1 1 8,0 z"
       transform="matrix(0.25,0,0,0.25,41.875,1013.3622)" />
    <path
       sodipodi:type="arc"
       style="fill:#c08000;fill-opacity:1;stroke:none"
       id="path3830-3-5-6-1-2"
       sodipodi:cx="16"
       sodipodi:cy="32"
       sodipodi:rx="4"
       sodipodi:ry="4"
       d="m 20,32 a 4,4 0 1 1 -8,0 4,4 0 1 1 8,0 z"
       transform="matrix(0.25,0,0,0.25,47.25,1017.7372)" />
    <path
       sodipodi:type="arc"
       style="fill:#c08000;fill-opacity:1;stroke:none"
       id="path3830-3-5-6-27-9"
       sodipodi:cx="16"
       sodipodi:cy="32"
       sodipodi:rx="4"
       sodipodi:ry="4"
       d="m 20,32 a 4,4 0 1 1 -8,0 4,4 0 1 1 8,0 z"
       transform="matrix(0.25,0,0,0.25,36,1010.3622)" />
    <path
       sodipodi:type="arc"
       style="fill:#c08000;fill-opacity:1;stroke:none"
       id="path3830-3-5-6-0-1"
       sodipodi:cx="16"
       sodipodi:cy="32"
       sodipodi:rx="4"
       sodipodi:ry="4"
       d="m 20,32 a 4,4 0 1 1 -8,0 4,4 0 1 1 8,0 z"
       transform="matrix(0.25,0,0,0.25,37.375,1017.4872)" />
    <path
       sodipodi:type="arc"
       style="fill:#c08000;fill-opacity:1;stroke:none"
       id="path3830-3-5-6-93-2"
       sodipodi:cx="16"
       sodipodi:cy="32"
       sodipodi:rx="4"
       sodipodi:ry="4"
       d="m 20,32 a 4,4 0 1 1 -8,0 4,4 0 1 1 8,0 z"
       transform="matrix(0.25,0,0,0.25,28.5,1007.9872)" />
    <path
       sodipodi:type="arc"
       style="fill:#c08000;fill-opacity:1;stroke:none"
       id="path3830-3-5-6-6-7"
       sodipodi:cx="16"
       sodipodi:cy="32"
       sodipodi:rx="4"
       sodipodi:ry="4"
       d="m 20,32 a 4,4 0 1 1 -8,0 4,4 0 1 1 8,0 z"
       transform="matrix(0.25,0,0,0.25,17.5,1018.1122)" />
    <path
       sodipodi:type="arc"
       style="fill:#c08000;fill-opacity:1;stroke:none"
       id="path3830-3-5-6-06-0"
       sodipodi:cx="16"
       sodipodi:cy="32"
       sodipodi:rx="4"
       sodipodi:ry="4"
       d="m 20,32 a 4,4 0 1 1 -8,0 4,4 0 1 1 8,0 z"
       transform="matrix(0.25,0,0,0.25,11.375,1010.2372)" />
    <path
       sodipodi:type="arc"
       style="fill:#c08000;fill-opacity:1;stroke:none"
       id="path3830-3-5-6-26-9"
       sodipodi:cx="16"
       sodipodi:cy="32"
       sodipodi:rx="4"
       sodipodi:ry="4"
       d="m 20,32 a 4,4 0 1 1 -8,0 4,4 0 1 1 8,0 z"
       transform="matrix(0.25,0,0,0.25,15.25,1014.1122)" />
    <path
       sodipodi:type="arc"
       style="fill:#c08000;fill-opacity:1;stroke:none"
       id="path3830-3-5-6-18-3"
       sodipodi:cx="16"
       sodipodi:cy="32"
       sodipodi:rx="4"
       sodipodi:ry="4"
       d="m 20,32 a 4,4 0 1 1 -8,0 4,4 0 1 1 8,0 z"
       transform="matrix(0.25,0,0,0.25,18.5,1008.7372)" />
    <path
       style="font-size:medium;font-style:normal;font-variant:normal;font-weight:normal;font-stretch:normal;text-indent:0;text-align:start;text-decoration:none;line-height:normal;letter-spacing:normal;word-spacing:normal;text-transform:none;direction:ltr;block-progression:tb;writing-mode:lr-tb;text-anchor:start;baseline-shift:baseline;color:#000000;fill:#c08000;fill-opacity:1;fill-rule:nonzero;stroke:none;stroke-width:2;marker:none;visibility:visible;display:inline;overflow:visible;enable-background:accumulate;font-family:Sans;-inkscape-font-specification:Sans"
       d="m 31.5,1011.7812 c -8.166667,0 -15.315051,2.0453 -20.5,5.1563 -5.1849495,3.111 -8.5,7.3437 -8.5,11.8437 0,1.1615 0.383174,2.3762 1.375,3.1563 0.991826,0.7801 2.3692209,1.1616 4.4375,1.4375 4.136558,0.5519 11.120964,0.5326 23.1875,0.4062 11.933407,-0.1249 18.913944,-0.1094 23.0625,-0.5937 2.074278,-0.2421 3.48027,-0.5837 4.5,-1.3125 1.01973,-0.7288 1.4375,-1.9219 1.4375,-3.0938 0,-4.5 -3.315051,-8.7327 -8.5,-11.8437 -5.184949,-3.111 -12.333333,-5.1563 -20.5,-5.1563 z m 0,2 c 7.833333,0 14.684949,1.986 19.5,4.875 4.815051,2.8891 7.5,6.625 7.5,10.125 0,0.8282 -0.09395,1.1116 -0.59375,1.4688 -0.499801,0.3572 -1.621153,0.7421 -3.5625,0.9688 -3.882694,0.4532 -10.902157,0.4374 -22.84375,0.5624 -12.058436,0.1263 -19.074051,0.1363 -22.90625,-0.375 -1.9160993,-0.2556 -3.011353,-0.6781 -3.5,-1.0624 -0.488647,-0.3844 -0.59375,-0.724 -0.59375,-1.5626 0,-3.5 2.6849495,-7.2359 7.5,-10.125 4.815051,-2.889 11.666667,-4.875 19.5,-4.875 z"
       id="path2987"
       inkscape:connector-curvature="0" />
    <path
       style="fill:#c080ff;fill-opacity:1;stroke:none"
       d="m 43.5,1000.3622 c 0,6.6274 -8,12 -12,20 -4,-8 -12,-13.3726 -12,-20 0,-6.62741 5.372583,-8.00001 12,-8.00001 6.627417,0 12,1.3726 12,8.00001 z"
       id="path3912"
       inkscape:connector-curvature="0"
       sodipodi:nodetypes="sccss" />
    <path
       style="fill:#ffffff;fill-opacity:1;stroke:none"
       d="m 37.5,1000.3622 c 0,3 -2,4 -6,4 -4,0 -6,-1 -6,-4 0,-3.00001 2,-4.00001 6,-4.00001 4,0 6,1 6,4.00001 z"
       id="path3908"
       inkscape:connector-curvature="0"
       sodipodi:nodetypes="sccss" />
    <path
       style="font-size:medium;font-style:normal;font-variant:normal;font-weight:normal;font-stretch:normal;text-indent:0;text-align:start;text-decoration:none;line-height:normal;letter-spacing:normal;word-spacing:normal;text-transform:none;direction:ltr;block-progression:tb;writing-mode:lr-tb;text-anchor:start;baseline-shift:baseline;color:#000000;fill:#8040ff;fill-opacity:1;fill-rule:nonzero;stroke:none;stroke-width:4;marker:none;visibility:visible;display:inline;overflow:visible;enable-background:accumulate;font-family:Sans;-inkscape-font-specification:Sans"
       d="m 32,990.36218 c -3.45178,0 -6.732129,0.29044 -9.4375,1.75 -2.705371,1.45956 -4.5625,4.39585 -4.5625,8.25002 0,4.1184 2.378951,7.4729 4.9375,10.7187 2.558549,3.2459 5.439674,6.5044 7.28125,10.1875 l 1.78125,3.5625 1.78125,-3.5625 c 1.841576,-3.6831 4.722701,-6.9416 7.28125,-10.1875 2.558549,-3.2458 4.9375,-6.6003 4.9375,-10.7187 0,-3.85417 -1.857129,-6.79046 -4.5625,-8.25002 -2.705371,-1.45956 -5.98572,-1.75 -9.4375,-1.75 z m 0,4 c 3.175637,0 5.893476,0.39766 7.53125,1.28125 1.637774,0.88359 2.46875,1.94548 2.46875,4.71877 0,2.509 -1.621049,5.1527 -4.0625,8.25 -1.86299,2.3634 -4.013512,5.0614 -5.9375,8.0625 -1.923988,-3.0011 -4.07451,-5.6991 -5.9375,-8.0625 -2.441451,-3.0973 -4.0625,-5.741 -4.0625,-8.25 0,-2.77329 0.830976,-3.83518 2.46875,-4.71877 1.637774,-0.88359 4.355613,-1.28125 7.53125,-1.28125 z"
       id="path3978"
       inkscape:connector-curvature="0" />
    <path
       style="font-size:medium;font-style:normal;font-variant:normal;font-weight:normal;font-stretch:normal;text-indent:0;text-align:start;text-decoration:none;line-height:normal;letter-spacing:normal;word-spacing:normal;text-transform:none;direction:ltr;block-progression:tb;writing-mode:lr-tb;text-anchor:start;baseline-shift:baseline;color:#000000;fill:#8040ff;fill-opacity:1;fill-rule:nonzero;stroke:none;stroke-width:2;marker:none;visibility:visible;display:inline;overflow:visible;enable-background:accumulate;font-family:Sans;-inkscape-font-specification:Sans"
       d="m 32,995.375 c -2.083333,0 -3.751759,0.20032 -5.03125,1 -1.279491,0.79968 -1.96875,2.27777 -1.96875,4 0,1.7222 0.68926,3.1691 1.96875,3.9688 1.27949,0.7996 2.947917,1.0312 5.03125,1.0312 2.083333,0 3.75176,-0.2316 5.03125,-1.0312 1.27949,-0.7997 1.96875,-2.2466 1.96875,-3.9688 0,-1.72223 -0.689259,-3.20032 -1.96875,-4 -1.279491,-0.79968 -2.947917,-1 -5.03125,-1 z m 0,2 c 1.916667,0 3.248241,0.26843 3.96875,0.71875 0.720509,0.45032 1.03125,1.00346 1.03125,2.28125 0,1.2778 -0.31074,1.7997 -1.03125,2.25 -0.72051,0.4503 -2.052083,0.75 -3.96875,0.75 -1.916667,0 -3.24824,-0.2997 -3.96875,-0.75 C 27.31074,1002.1747 27,1001.6528 27,1000.375 c 0,-1.27779 0.310741,-1.83093 1.03125,-2.28125 C 28.751759,997.64343 30.083333,997.375 32,997.375 z"
       id="path3978-7"
       inkscape:connector-curvature="0" />
  </g>
</svg>
