<?xml version="1.0" encoding="UTF-8" standalone="no"?>
<!-- Created with Inkscape (http://www.inkscape.org/) -->

<svg
   xmlns:dc="http://purl.org/dc/elements/1.1/"
   xmlns:cc="http://creativecommons.org/ns#"
   xmlns:rdf="http://www.w3.org/1999/02/22-rdf-syntax-ns#"
   xmlns:svg="http://www.w3.org/2000/svg"
   xmlns="http://www.w3.org/2000/svg"
   xmlns:sodipodi="http://sodipodi.sourceforge.net/DTD/sodipodi-0.dtd"
   xmlns:inkscape="http://www.inkscape.org/namespaces/inkscape"
   width="64"
   height="64"
   id="svg2"
   version="1.1"
   inkscape:version="0.48.4 r9939"
   sodipodi:docname="quick-eat-local-nostroke-bw.svg">
  <defs
     id="defs4" />
  <sodipodi:namedview
     id="base"
     pagecolor="#ffffff"
     bordercolor="#666666"
     borderopacity="1.0"
     inkscape:pageopacity="0.0"
     inkscape:pageshadow="2"
     inkscape:zoom="5.6568542"
     inkscape:cx="63.806163"
     inkscape:cy="50.433977"
     inkscape:document-units="px"
     inkscape:current-layer="layer1"
     showgrid="true"
     inkscape:window-width="1600"
     inkscape:window-height="876"
     inkscape:window-x="0"
     inkscape:window-y="24"
     inkscape:window-maximized="1"
     showguides="true"
     inkscape:guide-bbox="true">
    <inkscape:grid
       type="xygrid"
       id="grid2985"
       empspacing="4"
       visible="true"
       enabled="true"
       snapvisiblegridlinesonly="true" />
  </sodipodi:namedview>
  <metadata
     id="metadata7">
    <rdf:RDF>
      <cc:Work
         rdf:about="">
        <dc:format>image/svg+xml</dc:format>
        <dc:type
           rdf:resource="http://purl.org/dc/dcmitype/StillImage" />
        <dc:title></dc:title>
      </cc:Work>
    </rdf:RDF>
  </metadata>
  <g
     inkscape:label="Layer 1"
     inkscape:groupmode="layer"
     id="layer1"
     transform="translate(0,-988.36218)">
    <path
       style="font-size:medium;font-style:normal;font-variant:normal;font-weight:normal;font-stretch:normal;text-indent:0;text-align:start;text-decoration:none;line-height:normal;letter-spacing:normal;word-spacing:normal;text-transform:none;direction:ltr;block-progression:tb;writing-mode:lr-tb;text-anchor:start;baseline-shift:baseline;color:#000000;fill:#000000;fill-opacity:1;fill-rule:nonzero;stroke:none;stroke-width:2;marker:none;visibility:visible;display:inline;overflow:visible;enable-background:accumulate;font-family:Sans;-inkscape-font-specification:Sans"
       d="M 31.5 23.40625 C 29.699685 23.40625 27.972469 23.530458 26.28125 23.71875 C 28.322142 26.245218 30.45796 28.915941 32 32 C 33.520849 28.958324 35.610019 26.308694 37.625 23.8125 C 35.658001 23.553769 33.620912 23.40625 31.5 23.40625 z M 21.78125 24.4375 C 17.65505 25.33442 13.996844 26.764376 11 28.5625 C 6.0911668 31.507829 2.861643 35.456383 2.53125 39.6875 C 2.5887706 39.126958 2.7340659 38.581418 3 38.09375 C 2.9985853 38.144737 3 38.198902 3 38.25 C 3 39.4166 3.392259 40.61495 4.40625 41.34375 C 4.6126696 41.492113 4.8517571 41.601196 5.09375 41.71875 C 5.1684076 41.755017 5.2341988 41.810098 5.3125 41.84375 C 5.8685409 42.155028 6.8905303 42.469992 8.59375 42.65625 C 9.6465244 42.771405 11.002391 42.822573 12.5625 42.875 C 13.865737 42.918795 15.296358 42.95369 17 42.96875 C 20.843318 43.014063 25.698136 43 32 43 C 40.670583 43.00187 46.798416 43.027519 50.875 42.875 C 52.512635 42.818089 53.942112 42.750869 55.09375 42.625 C 57.16154 42.3988 58.579759 42.07255 59.59375 41.34375 C 59.994355 41.055817 60.279332 40.684841 60.5 40.28125 C 60.439384 35.827829 57.137006 31.644734 52 28.5625 C 49.208972 26.887867 45.843959 25.529229 42.0625 24.625 C 39.622148 27.684736 37.123835 30.658652 35.5625 33.78125 L 33.78125 37.34375 L 32 40.9375 L 30.21875 37.34375 L 28.4375 33.78125 C 26.84372 30.593762 24.26897 27.564937 21.78125 24.4375 z M 60.46875 40.9375 C 60.381117 41.553557 60.152454 42.152404 59.78125 42.65625 C 59.862545 42.580143 59.957323 42.515975 60.03125 42.4375 C 60.025458 42.430969 60.037101 42.412749 60.03125 42.40625 C 60.274218 41.953566 60.412841 41.455104 60.46875 40.9375 z M 2.5625 41 C 2.6574278 41.785718 2.9232052 42.544807 3.46875 43.15625 C 3.4861639 43.122837 3.5128099 43.095429 3.53125 43.0625 C 3.5353753 43.055133 3.5270723 43.038591 3.53125 43.03125 C 2.9822475 42.482337 2.6809758 41.752289 2.5625 41 z M 58.5 43.6875 C 57.542065 44.175986 56.292292 44.439193 54.59375 44.625 C 50.458169 45.077 43.496528 45 31.5 45 C 19.503472 45 12.541831 45.0773 8.40625 44.625 C 7.1138813 44.483625 6.0947896 44.293392 5.25 44 C 5.0686503 44.288178 5 44.651488 5 45.25 C 5 46.0833 5.107741 46.36915 5.59375 46.71875 C 6.079759 47.06805 7.16154 47.44495 9.09375 47.65625 C 12.958169 48.07895 19.996528 48 32 48 C 44.003472 48 51.041831 48.07895 54.90625 47.65625 C 56.83846 47.44495 57.920241 47.06805 58.40625 46.71875 C 58.892259 46.36945 59 46.0833 59 45.25 C 59 44.428115 58.890245 44.044014 58.5 43.6875 z M 3.9375 47.90625 C 3.5999726 48.291488 3.3687432 48.739647 3.21875 49.21875 C 3.3755219 48.750936 3.6326531 48.316439 3.96875 47.9375 C 3.9586032 47.926731 3.9474711 47.917131 3.9375 47.90625 z M 60.0625 47.90625 C 60.052529 47.917131 60.041397 47.926731 60.03125 47.9375 C 60.367347 48.316439 60.624478 48.750936 60.78125 49.21875 C 60.631257 48.739647 60.400027 48.291488 60.0625 47.90625 z M 5.78125 49 C 5.7358575 49.030645 5.6633063 49.063222 5.625 49.09375 C 5.129108 49.48895 5 49.8443 5 50.75 C 5 51.5833 5.107741 51.86945 5.59375 52.21875 C 6.079759 52.56805 7.16154 52.94495 9.09375 53.15625 C 12.958169 53.57905 19.996528 53.5 32 53.5 C 44.003472 53.5 51.041831 53.57895 54.90625 53.15625 C 56.83846 52.94495 57.920241 52.56805 58.40625 52.21875 C 58.892259 51.86945 59 51.5833 59 50.75 C 59 49.8443 58.870892 49.48895 58.375 49.09375 C 58.336694 49.063222 58.264143 49.030645 58.21875 49 C 57.380005 49.286655 56.369188 49.485477 55.09375 49.625 C 50.958169 50.077 43.996528 50 32 50 C 20.003472 50 13.041831 50.0773 8.90625 49.625 C 7.6308118 49.485477 6.6199949 49.286655 5.78125 49 z M 3.96875 53.4375 C 3.2836519 54.209927 3 55.190259 3 56.21875 C 3 57.38535 3.3922593 58.5837 4.40625 59.3125 C 5.4202407 60.0413 6.8384597 60.36755 8.90625 60.59375 C 13.041831 61.04605 20.003472 60.96875 32 60.96875 C 43.996528 60.96875 50.958169 61.04575 55.09375 60.59375 C 57.16154 60.36755 58.579759 60.0413 59.59375 59.3125 C 60.607741 58.5837 61 57.38535 61 56.21875 C 61 55.190259 60.716348 54.209927 60.03125 53.4375 C 59.895613 53.582921 59.76294 53.722146 59.59375 53.84375 C 58.579759 54.57255 57.16154 54.8988 55.09375 55.125 C 50.958169 55.577 43.996528 55.5 32 55.5 C 20.003472 55.5 13.041831 55.5773 8.90625 55.125 C 6.83846 54.8988 5.420241 54.57255 4.40625 53.84375 C 4.2370603 53.722146 4.1043868 53.582921 3.96875 53.4375 z "
       transform="translate(0,988.36218)"
       id="path3801" />
    <path
       style="font-size:medium;font-style:normal;font-variant:normal;font-weight:normal;font-stretch:normal;text-indent:0;text-align:start;text-decoration:none;line-height:normal;letter-spacing:normal;word-spacing:normal;text-transform:none;direction:ltr;block-progression:tb;writing-mode:lr-tb;text-anchor:start;baseline-shift:baseline;color:#000000;fill:#000000;fill-opacity:1;fill-rule:nonzero;stroke:none;stroke-width:4;marker:none;visibility:visible;display:inline;overflow:visible;enable-background:accumulate;font-family:Sans;-inkscape-font-specification:Sans"
       d="M 32 2 C 28.54822 2 25.267871 2.29044 22.5625 3.75 C 19.857129 5.20956 18 8.14583 18 12 C 18 16.1184 20.378951 19.47295 22.9375 22.71875 C 25.496049 25.96465 28.377174 29.22315 30.21875 32.90625 L 32 36.46875 L 33.78125 32.90625 C 35.622826 29.22315 38.503951 25.96465 41.0625 22.71875 C 43.621049 19.47295 46 16.1184 46 12 C 46 8.14583 44.142871 5.20956 41.4375 3.75 C 38.732129 2.29044 35.45178 2 32 2 z M 31.5 8 C 35.5 8 37.5 8.99999 37.5 12 C 37.5 15 35.5 16 31.5 16 C 27.5 16 25.5 15 25.5 12 C 25.5 8.99999 27.5 8 31.5 8 z "
       transform="translate(0,988.36218)"
       id="path3978" />
  </g>
</svg>
