<?xml version="1.0" encoding="UTF-8" standalone="no"?>
<!-- Created with Inkscape (http://www.inkscape.org/) -->

<svg
   xmlns:dc="http://purl.org/dc/elements/1.1/"
   xmlns:cc="http://creativecommons.org/ns#"
   xmlns:rdf="http://www.w3.org/1999/02/22-rdf-syntax-ns#"
   xmlns:svg="http://www.w3.org/2000/svg"
   xmlns="http://www.w3.org/2000/svg"
   xmlns:sodipodi="http://sodipodi.sourceforge.net/DTD/sodipodi-0.dtd"
   xmlns:inkscape="http://www.inkscape.org/namespaces/inkscape"
   width="64"
   height="64"
   id="svg2"
   version="1.1"
   inkscape:version="0.48.4 r9939"
   sodipodi:docname="New document 1">
  <defs
     id="defs4" />
  <sodipodi:namedview
     id="base"
     pagecolor="#ffffff"
     bordercolor="#666666"
     borderopacity="1.0"
     inkscape:pageopacity="0.0"
     inkscape:pageshadow="2"
     inkscape:zoom="5.6568542"
     inkscape:cx="30.183542"
     inkscape:cy="24.338744"
     inkscape:document-units="px"
     inkscape:current-layer="layer1"
     showgrid="true"
     inkscape:window-width="1600"
     inkscape:window-height="876"
     inkscape:window-x="0"
     inkscape:window-y="24"
     inkscape:window-maximized="1">
    <inkscape:grid
       type="xygrid"
       id="grid2985"
       empspacing="4"
       visible="true"
       enabled="true"
       snapvisiblegridlinesonly="true" />
  </sodipodi:namedview>
  <metadata
     id="metadata7">
    <rdf:RDF>
      <cc:Work
         rdf:about="">
        <dc:format>image/svg+xml</dc:format>
        <dc:type
           rdf:resource="http://purl.org/dc/dcmitype/StillImage" />
        <dc:title></dc:title>
      </cc:Work>
    </rdf:RDF>
  </metadata>
  <g
     inkscape:label="Layer 1"
     inkscape:groupmode="layer"
     id="layer1"
     transform="translate(0,-988.36218)">
    <path
       style="fill:#ffc000;fill-opacity:1;stroke:#c08000;stroke-width:2;stroke-linecap:square;stroke-linejoin:round;stroke-miterlimit:4;stroke-opacity:1;stroke-dasharray:none"
       d="m 60,1044.6091 c 0,4 -4,3.75 -28,3.75 -24,0 -28,0.25 -28,-3.75 0,-4.25 4,-4.25 28,-4.25 24,0 28,0 28,4.25 z"
       id="path2987-3"
       inkscape:connector-curvature="0"
       sodipodi:nodetypes="sssss" />
    <path
       style="fill:#c02000;fill-opacity:1;stroke:#801000;stroke-width:2;stroke-linecap:square;stroke-linejoin:round;stroke-miterlimit:4;stroke-opacity:1;stroke-dasharray:none"
       d="m 60,1039.1091 c 0,4 -4,3.75 -28,3.75 -24,0 -28,0.25 -28,-3.75 0,-4.25 4,-4.25 28,-4.25 24,0 28,0 28,4.25 z"
       id="path2987-3-6"
       inkscape:connector-curvature="0"
       sodipodi:nodetypes="sssss" />
    <path
       style="fill:#80c000;fill-opacity:1;stroke:#408000;stroke-width:2;stroke-linecap:square;stroke-linejoin:round;stroke-miterlimit:4;stroke-opacity:1;stroke-dasharray:none"
       d="m 60,1033.6091 c 0,4 -4,3.75 -28,3.75 -24,0 -28,0.25 -28,-3.75 0,-4.25 4,-4.25 28,-4.25 24,0 28,0 28,4.25 z"
       id="path2987-3-6-5"
       inkscape:connector-curvature="0"
       sodipodi:nodetypes="sssss" />
    <path
       style="fill:#ffc000;fill-opacity:1;stroke:#c08000;stroke-width:2;stroke-linecap:square;stroke-linejoin:round;stroke-miterlimit:4;stroke-opacity:1;stroke-dasharray:none"
       d="m 59.5,1028.793 c 0,4 -4.125,3.75 -28,4 -24.1249727,0.2526 -28,0 -28,-4 0,-8 12,-16 28,-16 16,0 28,8 28,16 z"
       id="path2987"
       inkscape:connector-curvature="0"
       sodipodi:nodetypes="sssss" />
    <path
       sodipodi:type="arc"
       style="fill:#c08000;fill-opacity:1;stroke:none"
       id="path3830"
       sodipodi:cx="16"
       sodipodi:cy="32"
       sodipodi:rx="4"
       sodipodi:ry="4"
       d="m 20,32 a 4,4 0 1 1 -8,0 4,4 0 1 1 8,0 z"
       transform="matrix(0.25,0,0,0.25,4.75,1018.1122)" />
    <path
       sodipodi:type="arc"
       style="fill:#c08000;fill-opacity:1;stroke:none"
       id="path3830-3"
       sodipodi:cx="16"
       sodipodi:cy="32"
       sodipodi:rx="4"
       sodipodi:ry="4"
       d="m 20,32 a 4,4 0 1 1 -8,0 4,4 0 1 1 8,0 z"
       transform="matrix(0.25,0,0,0.25,10.25,1016.3622)" />
    <path
       sodipodi:type="arc"
       style="fill:#c08000;fill-opacity:1;stroke:none"
       id="path3830-3-5"
       sodipodi:cx="16"
       sodipodi:cy="32"
       sodipodi:rx="4"
       sodipodi:ry="4"
       d="m 20,32 a 4,4 0 1 1 -8,0 4,4 0 1 1 8,0 z"
       transform="matrix(0.25,0,0,0.25,25.625,1019.1122)" />
    <path
       sodipodi:type="arc"
       style="fill:#c08000;fill-opacity:1;stroke:none"
       id="path3830-3-5-6"
       sodipodi:cx="16"
       sodipodi:cy="32"
       sodipodi:rx="4"
       sodipodi:ry="4"
       d="m 20,32 a 4,4 0 1 1 -8,0 4,4 0 1 1 8,0 z"
       transform="matrix(0.25,0,0,0.25,25,1012.6122)" />
    <path
       sodipodi:type="arc"
       style="fill:#c08000;fill-opacity:1;stroke:none"
       id="path3830-3-5-6-2"
       sodipodi:cx="16"
       sodipodi:cy="32"
       sodipodi:rx="4"
       sodipodi:ry="4"
       d="m 20,32 a 4,4 0 1 1 -8,0 4,4 0 1 1 8,0 z"
       transform="matrix(0.25,0,0,0.25,31.75,1014.4872)" />
    <path
       sodipodi:type="arc"
       style="fill:#c08000;fill-opacity:1;stroke:none"
       id="path3830-3-5-6-9"
       sodipodi:cx="16"
       sodipodi:cy="32"
       sodipodi:rx="4"
       sodipodi:ry="4"
       d="m 20,32 a 4,4 0 1 1 -8,0 4,4 0 1 1 8,0 z"
       transform="matrix(0.25,0,0,0.25,42.375,1013.3622)" />
    <path
       sodipodi:type="arc"
       style="fill:#c08000;fill-opacity:1;stroke:none"
       id="path3830-3-5-6-1"
       sodipodi:cx="16"
       sodipodi:cy="32"
       sodipodi:rx="4"
       sodipodi:ry="4"
       d="m 20,32 a 4,4 0 1 1 -8,0 4,4 0 1 1 8,0 z"
       transform="matrix(0.25,0,0,0.25,47.75,1017.7372)" />
    <path
       sodipodi:type="arc"
       style="fill:#c08000;fill-opacity:1;stroke:none"
       id="path3830-3-5-6-27"
       sodipodi:cx="16"
       sodipodi:cy="32"
       sodipodi:rx="4"
       sodipodi:ry="4"
       d="m 20,32 a 4,4 0 1 1 -8,0 4,4 0 1 1 8,0 z"
       transform="matrix(0.25,0,0,0.25,36.5,1010.3622)" />
    <path
       sodipodi:type="arc"
       style="fill:#c08000;fill-opacity:1;stroke:none"
       id="path3830-3-5-6-0"
       sodipodi:cx="16"
       sodipodi:cy="32"
       sodipodi:rx="4"
       sodipodi:ry="4"
       d="m 20,32 a 4,4 0 1 1 -8,0 4,4 0 1 1 8,0 z"
       transform="matrix(0.25,0,0,0.25,37.875,1017.4872)" />
    <path
       sodipodi:type="arc"
       style="fill:#c08000;fill-opacity:1;stroke:none"
       id="path3830-3-5-6-93"
       sodipodi:cx="16"
       sodipodi:cy="32"
       sodipodi:rx="4"
       sodipodi:ry="4"
       d="m 20,32 a 4,4 0 1 1 -8,0 4,4 0 1 1 8,0 z"
       transform="matrix(0.25,0,0,0.25,29,1007.9872)" />
    <path
       sodipodi:type="arc"
       style="fill:#c08000;fill-opacity:1;stroke:none"
       id="path3830-3-5-6-6"
       sodipodi:cx="16"
       sodipodi:cy="32"
       sodipodi:rx="4"
       sodipodi:ry="4"
       d="m 20,32 a 4,4 0 1 1 -8,0 4,4 0 1 1 8,0 z"
       transform="matrix(0.25,0,0,0.25,18,1018.1122)" />
    <path
       sodipodi:type="arc"
       style="fill:#c08000;fill-opacity:1;stroke:none"
       id="path3830-3-5-6-06"
       sodipodi:cx="16"
       sodipodi:cy="32"
       sodipodi:rx="4"
       sodipodi:ry="4"
       d="m 20,32 a 4,4 0 1 1 -8,0 4,4 0 1 1 8,0 z"
       transform="matrix(0.25,0,0,0.25,11.875,1010.2372)" />
    <path
       sodipodi:type="arc"
       style="fill:#c08000;fill-opacity:1;stroke:none"
       id="path3830-3-5-6-26"
       sodipodi:cx="16"
       sodipodi:cy="32"
       sodipodi:rx="4"
       sodipodi:ry="4"
       d="m 20,32 a 4,4 0 1 1 -8,0 4,4 0 1 1 8,0 z"
       transform="matrix(0.25,0,0,0.25,15.75,1014.1122)" />
    <path
       sodipodi:type="arc"
       style="fill:#c08000;fill-opacity:1;stroke:none"
       id="path3830-3-5-6-18"
       sodipodi:cx="16"
       sodipodi:cy="32"
       sodipodi:rx="4"
       sodipodi:ry="4"
       d="m 20,32 a 4,4 0 1 1 -8,0 4,4 0 1 1 8,0 z"
       transform="matrix(0.25,0,0,0.25,19,1008.7372)" />
    <path
       transform="translate(0,988.36218)"
       style="fill:#c080ff;fill-opacity:1;stroke:#8040ff;stroke-width:4;stroke-miterlimit:4;stroke-opacity:1"
       d="M 44,12 C 44,18.627417 36,24 32,32 28,24 20,18.627417 20,12 20,5.372583 25.372583,4 32,4 c 6.627417,0 12,1.372583 12,8 z"
       id="path3978"
       inkscape:connector-curvature="0"
       sodipodi:nodetypes="sccss" />
    <path
       style="fill:#ffffff;fill-opacity:1;stroke:#8040ff;stroke-width:2;stroke-miterlimit:4;stroke-opacity:1;stroke-dasharray:none"
       d="m 38,1000.3622 c 0,3 -2,4 -6,4 -4,0 -6,-1 -6,-4 0,-3.00002 2,-4.00002 6,-4.00002 4,0 6,1 6,4.00002 z"
       id="path3978-7"
       inkscape:connector-curvature="0"
       sodipodi:nodetypes="sccss" />
  </g>
</svg>
